<svg xmlns="http://www.w3.org/2000/svg" xmlns:xlink="http://www.w3.org/1999/xlink" width="1080" zoomAndPan="magnify" viewBox="0 0 810 809.999993" height="1080" preserveAspectRatio="xMidYMid meet" version="1.0"><defs><g/></defs><g fill="#03b32e" fill-opacity="1"><g transform="translate(1.303962, 599.724438)"><g><path d="M 293.234375 -274.109375 C 286.671875 -284.929688 277.6875 -293.238281 266.28125 -299.03125 C 254.882812 -304.820312 241.460938 -307.71875 226.015625 -307.71875 C 197.421875 -307.71875 174.914062 -298.445312 158.5 -279.90625 C 142.082031 -261.363281 133.875 -236.445312 133.875 -205.15625 C 133.875 -169.988281 142.660156 -143.226562 160.234375 -124.875 C 177.816406 -106.53125 203.410156 -97.359375 237.015625 -97.359375 C 276.816406 -97.359375 305.210938 -115.320312 322.203125 -151.25 L 208.046875 -151.25 L 208.046875 -232.96875 L 420.15625 -232.96875 L 420.15625 -122.859375 C 411.257812 -101.222656 398.21875 -80.9375 381.03125 -62 C 363.84375 -43.070312 342.109375 -27.523438 315.828125 -15.359375 C 289.554688 -3.191406 259.617188 2.890625 226.015625 2.890625 C 185.054688 2.890625 148.832031 -5.894531 117.34375 -23.46875 C 85.863281 -41.050781 61.523438 -65.582031 44.328125 -97.0625 C 27.140625 -128.550781 18.546875 -164.582031 18.546875 -205.15625 C 18.546875 -245.332031 27.140625 -281.160156 44.328125 -312.640625 C 61.523438 -344.128906 85.769531 -368.660156 117.0625 -386.234375 C 148.351562 -403.816406 184.476562 -412.609375 225.4375 -412.609375 C 276.8125 -412.609375 319.304688 -400.242188 352.921875 -375.515625 C 386.535156 -350.796875 407.398438 -316.992188 415.515625 -274.109375 Z M 293.234375 -274.109375 "/></g></g></g><g fill="#03b32e" fill-opacity="1"><g transform="translate(439.98546, 599.724438)"><g><path d="M 183.703125 4.0625 C 151.253906 4.0625 122.179688 -2.695312 96.484375 -16.21875 C 70.796875 -29.75 50.609375 -49.066406 35.921875 -74.171875 C 21.242188 -99.285156 13.90625 -128.84375 13.90625 -162.84375 C 13.90625 -196.457031 21.34375 -225.816406 36.21875 -250.921875 C 51.09375 -276.035156 71.375 -295.351562 97.0625 -308.875 C 122.757812 -322.40625 151.832031 -329.171875 184.28125 -329.171875 C 216.738281 -329.171875 245.8125 -322.40625 271.5 -308.875 C 297.195312 -295.351562 317.476562 -276.035156 332.34375 -250.921875 C 347.21875 -225.816406 354.65625 -196.457031 354.65625 -162.84375 C 354.65625 -129.226562 347.21875 -99.769531 332.34375 -74.46875 C 317.476562 -49.164062 297.101562 -29.75 271.21875 -16.21875 C 245.332031 -2.695312 216.160156 4.0625 183.703125 4.0625 Z M 183.703125 -94.46875 C 199.546875 -94.46875 212.78125 -100.359375 223.40625 -112.140625 C 234.03125 -123.921875 239.34375 -140.820312 239.34375 -162.84375 C 239.34375 -184.863281 234.03125 -201.664062 223.40625 -213.25 C 212.78125 -224.84375 199.738281 -230.640625 184.28125 -230.640625 C 168.832031 -230.640625 155.890625 -224.84375 145.453125 -213.25 C 135.023438 -201.664062 129.8125 -184.863281 129.8125 -162.84375 C 129.8125 -140.4375 134.832031 -123.4375 144.875 -111.84375 C 154.925781 -100.257812 167.867188 -94.46875 183.703125 -94.46875 Z M 183.703125 -94.46875 "/></g></g></g></svg>