<svg xmlns="http://www.w3.org/2000/svg" xmlns:xlink="http://www.w3.org/1999/xlink" zoomAndPan="magnify" preserveAspectRatio="xMidYMid meet" version="1.0" viewBox="54.79 164.88 264.18 44.92"><defs><g/></defs><g fill="#03b32e" fill-opacity="1"><g transform="translate(52.789843, 209.361968)"><g><path d="M 31.609375 -29.546875 C 30.898438 -30.710938 29.929688 -31.609375 28.703125 -32.234375 C 27.472656 -32.859375 26.023438 -33.171875 24.359375 -33.171875 C 21.273438 -33.171875 18.847656 -32.171875 17.078125 -30.171875 C 15.316406 -28.171875 14.4375 -25.484375 14.4375 -22.109375 C 14.4375 -18.316406 15.378906 -15.429688 17.265625 -13.453125 C 19.160156 -11.484375 21.921875 -10.5 25.546875 -10.5 C 29.835938 -10.5 32.898438 -12.429688 34.734375 -16.296875 L 22.421875 -16.296875 L 22.421875 -25.109375 L 45.296875 -25.109375 L 45.296875 -13.25 C 44.335938 -10.914062 42.929688 -8.726562 41.078125 -6.6875 C 39.222656 -4.644531 36.878906 -2.96875 34.046875 -1.65625 C 31.210938 -0.34375 27.984375 0.3125 24.359375 0.3125 C 19.941406 0.3125 16.035156 -0.632812 12.640625 -2.53125 C 9.253906 -4.425781 6.632812 -7.070312 4.78125 -10.46875 C 2.925781 -13.863281 2 -17.742188 2 -22.109375 C 2 -26.441406 2.925781 -30.304688 4.78125 -33.703125 C 6.632812 -37.097656 9.242188 -39.742188 12.609375 -41.640625 C 15.984375 -43.535156 19.878906 -44.484375 24.296875 -44.484375 C 29.835938 -44.484375 34.421875 -43.148438 38.046875 -40.484375 C 41.671875 -37.816406 43.921875 -34.171875 44.796875 -29.546875 Z M 31.609375 -29.546875 "/></g></g></g><g fill="#03b32e" fill-opacity="1"><g transform="translate(100.074131, 209.361968)"><g><path d="M 19.796875 0.4375 C 16.304688 0.4375 13.175781 -0.289062 10.40625 -1.75 C 7.632812 -3.207031 5.457031 -5.289062 3.875 -8 C 2.289062 -10.707031 1.5 -13.890625 1.5 -17.546875 C 1.5 -21.171875 2.300781 -24.335938 3.90625 -27.046875 C 5.507812 -29.753906 7.695312 -31.835938 10.46875 -33.296875 C 13.238281 -34.753906 16.367188 -35.484375 19.859375 -35.484375 C 23.359375 -35.484375 26.492188 -34.753906 29.265625 -33.296875 C 32.035156 -31.835938 34.222656 -29.753906 35.828125 -27.046875 C 37.429688 -24.335938 38.234375 -21.171875 38.234375 -17.546875 C 38.234375 -13.929688 37.429688 -10.757812 35.828125 -8.03125 C 34.222656 -5.300781 32.023438 -3.207031 29.234375 -1.75 C 26.441406 -0.289062 23.296875 0.4375 19.796875 0.4375 Z M 19.796875 -10.1875 C 21.503906 -10.1875 22.929688 -10.820312 24.078125 -12.09375 C 25.222656 -13.363281 25.796875 -15.179688 25.796875 -17.546875 C 25.796875 -19.921875 25.222656 -21.734375 24.078125 -22.984375 C 22.929688 -24.234375 21.523438 -24.859375 19.859375 -24.859375 C 18.191406 -24.859375 16.796875 -24.234375 15.671875 -22.984375 C 14.554688 -21.734375 14 -19.921875 14 -17.546875 C 14 -15.140625 14.535156 -13.3125 15.609375 -12.0625 C 16.691406 -10.8125 18.085938 -10.1875 19.796875 -10.1875 Z M 19.796875 -10.1875 "/></g></g></g><g fill="#231f20" fill-opacity="1"><g transform="translate(139.814835, 209.361968)"><g><path d="M 15.734375 -9.375 L 29.421875 -9.375 L 29.421875 0 L 3.5 0 L 3.5 -44.046875 L 15.734375 -44.046875 Z M 15.734375 -9.375 "/></g></g></g><g fill="#231f20" fill-opacity="1"><g transform="translate(170.484044, 209.361968)"><g><path d="M 36.984375 -17.921875 C 36.984375 -16.960938 36.921875 -16.007812 36.796875 -15.0625 L 13.625 -15.0625 C 13.75 -13.144531 14.273438 -11.71875 15.203125 -10.78125 C 16.140625 -9.84375 17.335938 -9.375 18.796875 -9.375 C 20.835938 -9.375 22.296875 -10.289062 23.171875 -12.125 L 36.234375 -12.125 C 35.691406 -9.707031 34.640625 -7.550781 33.078125 -5.65625 C 31.515625 -3.757812 29.546875 -2.269531 27.171875 -1.1875 C 24.796875 -0.101562 22.171875 0.4375 19.296875 0.4375 C 15.847656 0.4375 12.78125 -0.289062 10.09375 -1.75 C 7.40625 -3.207031 5.300781 -5.289062 3.78125 -8 C 2.257812 -10.707031 1.5 -13.890625 1.5 -17.546875 C 1.5 -21.210938 2.25 -24.390625 3.75 -27.078125 C 5.25 -29.765625 7.34375 -31.835938 10.03125 -33.296875 C 12.71875 -34.753906 15.804688 -35.484375 19.296875 -35.484375 C 22.753906 -35.484375 25.816406 -34.773438 28.484375 -33.359375 C 31.148438 -31.941406 33.234375 -29.910156 34.734375 -27.265625 C 36.234375 -24.617188 36.984375 -21.503906 36.984375 -17.921875 Z M 24.484375 -20.984375 C 24.484375 -22.484375 23.984375 -23.660156 22.984375 -24.515625 C 21.984375 -25.367188 20.734375 -25.796875 19.234375 -25.796875 C 17.734375 -25.796875 16.503906 -25.390625 15.546875 -24.578125 C 14.597656 -23.765625 13.976562 -22.566406 13.6875 -20.984375 Z M 24.484375 -20.984375 "/></g></g></g><g fill="#231f20" fill-opacity="1"><g transform="translate(208.961087, 209.361968)"><g><path d="M 1.5 -17.546875 C 1.5 -21.171875 2.15625 -24.335938 3.46875 -27.046875 C 4.78125 -29.753906 6.570312 -31.835938 8.84375 -33.296875 C 11.113281 -34.753906 13.640625 -35.484375 16.421875 -35.484375 C 18.835938 -35.484375 20.921875 -35.003906 22.671875 -34.046875 C 24.421875 -33.085938 25.773438 -31.796875 26.734375 -30.171875 L 26.734375 -35.046875 L 38.984375 -35.046875 L 38.984375 0 L 26.734375 0 L 26.734375 -4.875 C 25.773438 -3.25 24.410156 -1.957031 22.640625 -1 C 20.867188 -0.0390625 18.796875 0.4375 16.421875 0.4375 C 13.640625 0.4375 11.113281 -0.289062 8.84375 -1.75 C 6.570312 -3.207031 4.78125 -5.300781 3.46875 -8.03125 C 2.15625 -10.757812 1.5 -13.929688 1.5 -17.546875 Z M 26.734375 -17.546875 C 26.734375 -19.796875 26.117188 -21.566406 24.890625 -22.859375 C 23.660156 -24.148438 22.148438 -24.796875 20.359375 -24.796875 C 18.523438 -24.796875 17.003906 -24.160156 15.796875 -22.890625 C 14.597656 -21.617188 14 -19.835938 14 -17.546875 C 14 -15.304688 14.597656 -13.53125 15.796875 -12.21875 C 17.003906 -10.90625 18.523438 -10.25 20.359375 -10.25 C 22.148438 -10.25 23.660156 -10.894531 24.890625 -12.1875 C 26.117188 -13.476562 26.734375 -15.265625 26.734375 -17.546875 Z M 26.734375 -17.546875 "/></g></g></g><g fill="#231f20" fill-opacity="1"><g transform="translate(251.435745, 209.361968)"><g><path d="M 15.734375 -28.859375 C 17.109375 -30.859375 18.773438 -32.441406 20.734375 -33.609375 C 22.691406 -34.773438 24.796875 -35.359375 27.046875 -35.359375 L 27.046875 -22.296875 L 23.609375 -22.296875 C 20.941406 -22.296875 18.960938 -21.773438 17.671875 -20.734375 C 16.378906 -19.691406 15.734375 -17.882812 15.734375 -15.3125 L 15.734375 0 L 3.5 0 L 3.5 -35.046875 L 15.734375 -35.046875 Z M 15.734375 -28.859375 "/></g></g></g><g fill="#231f20" fill-opacity="1"><g transform="translate(279.356592, 209.361968)"><g><path d="M 26.421875 -35.359375 C 30.460938 -35.359375 33.671875 -34.015625 36.046875 -31.328125 C 38.421875 -28.640625 39.609375 -25.003906 39.609375 -20.421875 L 39.609375 0 L 27.359375 0 L 27.359375 -18.796875 C 27.359375 -20.796875 26.835938 -22.367188 25.796875 -23.515625 C 24.753906 -24.660156 23.359375 -25.234375 21.609375 -25.234375 C 19.773438 -25.234375 18.335938 -24.660156 17.296875 -23.515625 C 16.253906 -22.367188 15.734375 -20.796875 15.734375 -18.796875 L 15.734375 0 L 3.5 0 L 3.5 -35.046875 L 15.734375 -35.046875 L 15.734375 -30.046875 C 16.816406 -31.628906 18.273438 -32.910156 20.109375 -33.890625 C 21.941406 -34.867188 24.046875 -35.359375 26.421875 -35.359375 Z M 26.421875 -35.359375 "/></g></g></g></svg>