<svg xmlns="http://www.w3.org/2000/svg" xmlns:xlink="http://www.w3.org/1999/xlink" zoomAndPan="magnify" preserveAspectRatio="xMidYMid meet" version="1.0" viewBox="31.7 139.9 302.3 79.55"><defs><g/><clipPath id="a6e210900f"><path d="M 40 147 L 84 147 L 84 209 L 40 209 Z M 40 147 " clip-rule="nonzero"/></clipPath><clipPath id="0cb0235fbb"><path d="M 31.699219 183.921875 L 75.71875 139.902344 L 103.292969 167.480469 L 59.277344 211.496094 Z M 31.699219 183.921875 " clip-rule="nonzero"/></clipPath><clipPath id="bb665600c2"><path d="M 31.699219 183.921875 L 75.71875 139.902344 L 103.292969 167.480469 L 59.277344 211.496094 Z M 31.699219 183.921875 " clip-rule="nonzero"/></clipPath><clipPath id="4bb750fef1"><path d="M 53 160 L 85 160 L 85 193 L 53 193 Z M 53 160 " clip-rule="nonzero"/></clipPath><clipPath id="44c5a697c8"><path d="M 31.699219 183.921875 L 75.71875 139.902344 L 103.292969 167.480469 L 59.277344 211.496094 Z M 31.699219 183.921875 " clip-rule="nonzero"/></clipPath><clipPath id="f7db24bcdf"><path d="M 31.699219 183.921875 L 75.71875 139.902344 L 103.292969 167.480469 L 59.277344 211.496094 Z M 31.699219 183.921875 " clip-rule="nonzero"/></clipPath></defs><g fill="#03b32e" fill-opacity="1"><g transform="translate(67.699321, 219.01475)"><g><path d="M 31.625 -29.5625 C 30.914062 -30.726562 29.945312 -31.625 28.71875 -32.25 C 27.488281 -32.875 26.039062 -33.1875 24.375 -33.1875 C 21.289062 -33.1875 18.863281 -32.1875 17.09375 -30.1875 C 15.320312 -28.1875 14.4375 -25.5 14.4375 -22.125 C 14.4375 -18.332031 15.382812 -15.445312 17.28125 -13.46875 C 19.175781 -11.488281 21.9375 -10.5 25.5625 -10.5 C 29.851562 -10.5 32.914062 -12.4375 34.75 -16.3125 L 22.4375 -16.3125 L 22.4375 -25.125 L 45.3125 -25.125 L 45.3125 -13.25 C 44.351562 -10.914062 42.945312 -8.726562 41.09375 -6.6875 C 39.238281 -4.644531 36.894531 -2.96875 34.0625 -1.65625 C 31.226562 -0.34375 28 0.3125 24.375 0.3125 C 19.957031 0.3125 16.050781 -0.632812 12.65625 -2.53125 C 9.257812 -4.425781 6.632812 -7.070312 4.78125 -10.46875 C 2.925781 -13.863281 2 -17.75 2 -22.125 C 2 -26.457031 2.925781 -30.320312 4.78125 -33.71875 C 6.632812 -37.113281 9.25 -39.757812 12.625 -41.65625 C 16 -43.550781 19.894531 -44.5 24.3125 -44.5 C 29.851562 -44.5 34.4375 -43.164062 38.0625 -40.5 C 41.6875 -37.832031 43.9375 -34.1875 44.8125 -29.5625 Z M 31.625 -29.5625 "/></g></g></g><g fill="#03b32e" fill-opacity="1"><g transform="translate(115.008793, 219.01475)"><g><path d="M 19.8125 0.4375 C 16.3125 0.4375 13.175781 -0.289062 10.40625 -1.75 C 7.632812 -3.207031 5.457031 -5.289062 3.875 -8 C 2.289062 -10.707031 1.5 -13.894531 1.5 -17.5625 C 1.5 -21.1875 2.300781 -24.351562 3.90625 -27.0625 C 5.507812 -29.769531 7.695312 -31.851562 10.46875 -33.3125 C 13.238281 -34.769531 16.375 -35.5 19.875 -35.5 C 23.375 -35.5 26.507812 -34.769531 29.28125 -33.3125 C 32.050781 -31.851562 34.238281 -29.769531 35.84375 -27.0625 C 37.445312 -24.351562 38.25 -21.1875 38.25 -17.5625 C 38.25 -13.9375 37.445312 -10.757812 35.84375 -8.03125 C 34.238281 -5.300781 32.039062 -3.207031 29.25 -1.75 C 26.457031 -0.289062 23.3125 0.4375 19.8125 0.4375 Z M 19.8125 -10.1875 C 21.519531 -10.1875 22.945312 -10.820312 24.09375 -12.09375 C 25.238281 -13.363281 25.8125 -15.1875 25.8125 -17.5625 C 25.8125 -19.9375 25.238281 -21.75 24.09375 -23 C 22.945312 -24.25 21.539062 -24.875 19.875 -24.875 C 18.207031 -24.875 16.8125 -24.25 15.6875 -23 C 14.5625 -21.75 14 -19.9375 14 -17.5625 C 14 -15.144531 14.539062 -13.3125 15.625 -12.0625 C 16.707031 -10.8125 18.101562 -10.1875 19.8125 -10.1875 Z M 19.8125 -10.1875 "/></g></g></g><g fill="#231f20" fill-opacity="1"><g transform="translate(154.757909, 219.01475)"><g><path d="M 15.75 -9.375 L 29.4375 -9.375 L 29.4375 0 L 3.5 0 L 3.5 -44.0625 L 15.75 -44.0625 Z M 15.75 -9.375 "/></g></g></g><g fill="#231f20" fill-opacity="1"><g transform="translate(185.443442, 219.01475)"><g><path d="M 37 -17.9375 C 37 -16.976562 36.9375 -16.019531 36.8125 -15.0625 L 13.625 -15.0625 C 13.75 -13.144531 14.28125 -11.71875 15.21875 -10.78125 C 16.15625 -9.84375 17.351562 -9.375 18.8125 -9.375 C 20.851562 -9.375 22.3125 -10.289062 23.1875 -12.125 L 36.25 -12.125 C 35.707031 -9.707031 34.65625 -7.550781 33.09375 -5.65625 C 31.53125 -3.757812 29.5625 -2.269531 27.1875 -1.1875 C 24.8125 -0.101562 22.1875 0.4375 19.3125 0.4375 C 15.851562 0.4375 12.78125 -0.289062 10.09375 -1.75 C 7.40625 -3.207031 5.300781 -5.289062 3.78125 -8 C 2.257812 -10.707031 1.5 -13.894531 1.5 -17.5625 C 1.5 -21.226562 2.25 -24.40625 3.75 -27.09375 C 5.25 -29.78125 7.34375 -31.851562 10.03125 -33.3125 C 12.71875 -34.769531 15.8125 -35.5 19.3125 -35.5 C 22.769531 -35.5 25.832031 -34.789062 28.5 -33.375 C 31.164062 -31.957031 33.25 -29.925781 34.75 -27.28125 C 36.25 -24.632812 37 -21.519531 37 -17.9375 Z M 24.5 -21 C 24.5 -22.5 24 -23.675781 23 -24.53125 C 22 -25.382812 20.75 -25.8125 19.25 -25.8125 C 17.75 -25.8125 16.519531 -25.40625 15.5625 -24.59375 C 14.601562 -23.78125 13.976562 -22.582031 13.6875 -21 Z M 24.5 -21 "/></g></g></g><g fill="#231f20" fill-opacity="1"><g transform="translate(223.940975, 219.01475)"><g><path d="M 1.5 -17.5625 C 1.5 -21.1875 2.15625 -24.351562 3.46875 -27.0625 C 4.78125 -29.769531 6.570312 -31.851562 8.84375 -33.3125 C 11.113281 -34.769531 13.644531 -35.5 16.4375 -35.5 C 18.851562 -35.5 20.9375 -35.019531 22.6875 -34.0625 C 24.4375 -33.101562 25.789062 -31.8125 26.75 -30.1875 L 26.75 -35.0625 L 39 -35.0625 L 39 0 L 26.75 0 L 26.75 -4.875 C 25.789062 -3.25 24.425781 -1.957031 22.65625 -1 C 20.882812 -0.0390625 18.8125 0.4375 16.4375 0.4375 C 13.644531 0.4375 11.113281 -0.289062 8.84375 -1.75 C 6.570312 -3.207031 4.78125 -5.300781 3.46875 -8.03125 C 2.15625 -10.757812 1.5 -13.9375 1.5 -17.5625 Z M 26.75 -17.5625 C 26.75 -19.8125 26.132812 -21.582031 24.90625 -22.875 C 23.675781 -24.164062 22.164062 -24.8125 20.375 -24.8125 C 18.539062 -24.8125 17.019531 -24.175781 15.8125 -22.90625 C 14.601562 -21.632812 14 -19.851562 14 -17.5625 C 14 -15.3125 14.601562 -13.53125 15.8125 -12.21875 C 17.019531 -10.90625 18.539062 -10.25 20.375 -10.25 C 22.164062 -10.25 23.675781 -10.894531 24.90625 -12.1875 C 26.132812 -13.476562 26.75 -15.269531 26.75 -17.5625 Z M 26.75 -17.5625 "/></g></g></g><g fill="#231f20" fill-opacity="1"><g transform="translate(266.438253, 219.01475)"><g><path d="M 15.75 -28.875 C 17.125 -30.875 18.789062 -32.457031 20.75 -33.625 C 22.707031 -34.789062 24.8125 -35.375 27.0625 -35.375 L 27.0625 -22.3125 L 23.625 -22.3125 C 20.957031 -22.3125 18.976562 -21.789062 17.6875 -20.75 C 16.394531 -19.707031 15.75 -17.894531 15.75 -15.3125 L 15.75 0 L 3.5 0 L 3.5 -35.0625 L 15.75 -35.0625 Z M 15.75 -28.875 "/></g></g></g><g fill="#231f20" fill-opacity="1"><g transform="translate(294.373966, 219.01475)"><g><path d="M 26.4375 -35.375 C 30.476562 -35.375 33.6875 -34.03125 36.0625 -31.34375 C 38.4375 -28.65625 39.625 -25.019531 39.625 -20.4375 L 39.625 0 L 27.375 0 L 27.375 -18.8125 C 27.375 -20.8125 26.851562 -22.382812 25.8125 -23.53125 C 24.769531 -24.675781 23.375 -25.25 21.625 -25.25 C 19.789062 -25.25 18.351562 -24.675781 17.3125 -23.53125 C 16.269531 -22.382812 15.75 -20.8125 15.75 -18.8125 L 15.75 0 L 3.5 0 L 3.5 -35.0625 L 15.75 -35.0625 L 15.75 -30.0625 C 16.832031 -31.644531 18.289062 -32.925781 20.125 -33.90625 C 21.957031 -34.882812 24.0625 -35.375 26.4375 -35.375 Z M 26.4375 -35.375 "/></g></g></g><g clip-path="url(#a6e210900f)"><g clip-path="url(#0cb0235fbb)"><g clip-path="url(#bb665600c2)"><path fill="#231f20" d="M 68.898438 154.691406 L 54.261719 161.457031 L 54.089844 161.535156 L 54.011719 161.707031 L 47.246094 176.34375 L 40.324219 191.324219 L 43.46875 189.871094 L 47.097656 188.195312 C 47.625 189.871094 49.167969 192.484375 53.535156 195.40625 C 53.203125 196.179688 53.351562 197.109375 53.984375 197.742188 C 54.4375 198.191406 55.039062 198.398438 55.632812 198.355469 C 59.242188 202.625 57.128906 205.835938 56.328125 206.78125 C 56.078125 207.078125 56.015625 207.503906 56.214844 207.839844 C 57.074219 209.261719 61.320312 207.320312 63.734375 206.058594 C 64.800781 205.5 65.304688 204.242188 64.902344 203.109375 C 63.335938 198.6875 59.484375 196.804688 57.601562 196.128906 C 57.574219 195.625 57.371094 195.128906 56.984375 194.742188 C 56.320312 194.078125 55.324219 193.949219 54.527344 194.347656 C 52.902344 193.082031 49.449219 190.125 48.808594 187.402344 L 52.839844 185.542969 C 51.640625 183.359375 53.949219 179.847656 54.753906 178.621094 C 56.523438 175.933594 59.25 172.695312 62.441406 169.507812 C 65.613281 166.335938 68.832031 163.621094 71.503906 161.863281 C 72.695312 161.078125 76.089844 158.847656 78.269531 159.90625 L 82.425781 150.914062 L 83.878906 147.769531 Z M 68.898438 154.691406 " fill-opacity="1" fill-rule="nonzero"/></g></g></g><g clip-path="url(#4bb750fef1)"><g clip-path="url(#44c5a697c8)"><g clip-path="url(#f7db24bcdf)"><path fill="#231f20" d="M 54.21875 185.171875 L 61.164062 192.113281 C 62.320312 186.445312 65.101562 181.039062 69.5 176.640625 C 73.898438 172.242188 79.300781 169.464844 84.972656 168.304688 L 78.015625 161.347656 C 74.324219 157.65625 50.527344 181.484375 54.21875 185.171875 Z M 54.21875 185.171875 " fill-opacity="1" fill-rule="nonzero"/></g></g></g></svg>